@startuml
class Employee.EmployeeDashboard {
~ DrawerLayout drawerLayout
~ FragmentManager fragmentManager
# void onCreate()
+ void clickNavigationDrawer()
+ void manageBranch()
+ void manageServicesOffered()
+ void logOut()
- {static} void openDrawer()
- {static} void closeDrawer()
}
class Admin.MovingServices.AdminMovingAssistance {
~ Fragment moving_assistance_add
~ Fragment moving_assistance_view
~ FloatingActionButton floatingActionButton
+ {static} AdminMovingAssistance newInstance()
+ void onCreate()
+ View onCreateView()
+ void add_team()
+ void view_team()
}
class Admin.CarRental.AdminViewCarRental {
~ LinearLayout layoutToDraw
- DatabaseReference mDatabase
~ ViewGroup.LayoutParams layoutParams
~ Context thiscontext
+ {static} AdminViewCarRental newInstance()
+ void onCreate()
+ View onCreateView()
+ void generateItems()
+ void createItem()
+ TextView createTextView()
+ void deleteCarService()
}
class Admin.CarRental.AdminAddCarRental {
- DatabaseReference mDatabase
~ EditText vehicleMake
~ EditText vehicleModel
~ EditText numberPlate
~ EditText hourlySetRate
~ Spinner vehicleType
~ Button confirmAndAdd
+ {static} AdminAddCarRental newInstance()
+ void onCreate()
+ View onCreateView()
+ void addData()
}
class Services.Forms.Form {
# String FirstName
# String isApproved
+ String getFirstName()
+ String getLastName()
+ String getDateOfBirth()
+ String getAddress()
+ String getEmail()
+ String getIsApproved()
+ String getFormIdentifier()
+ String getServiceIdentifier()
+ void setFirstName()
+ void setLastName()
+ void setDateOfBirth()
+ void setAddress()
+ void setEmail()
+ void setIsApproved()
+ void setFormIdentifier()
+ void setServiceIdentifier()
}
class Admin.CarRental.AdminCarRental {
~ Fragment car_add
~ Fragment car_view
~ FloatingActionButton floatingActionButton
+ {static} AdminCarRental newInstance()
+ void onCreate()
+ View onCreateView()
+ void onViewCreated()
+ void add_car()
+ void view_car()
}
class Admin.AdminToolbar {
- {static} String ARG_PARAM1
- {static} String ARG_PARAM2
- String mParam1
- String mParam2
+ {static} AdminToolbar newInstance()
+ void onCreate()
+ View onCreateView()
}
class Customer.CustomerDashboard {
~ DrawerLayout drawerLayout
~ FragmentManager fragmentManager
# void onCreate()
+ void clickNavigationDrawer()
+ void selectBranch()
+ void selectServicesFromBranch()
+ void formStatus()
+ void logOut()
- {static} void openDrawer()
- {static} void closeDrawer()
}
class Services.movingServices {
~ String identifier
~ String price
~ String numberOfMovers
~ String branchIdentifier
+ String formID
+ String getNumberOfMovers()
+ String getIdentifier()
+ String getPrice()
+ void setIdentifier()
+ void setFormID()
+ void setBranch()
+ void removeBranch()
+ String getBranch()
+ String getFormID()
+ String toString()
}
class Users.User {
# String firstName
+ String getFirstName()
+ String getLastName()
+ String getEmail()
+ String getPassword()
+ String getUserType()
+ String getIdentifier()
+ void setIdentifier()
+ String toString()
}
class Branch.BranchInfo {
# List<String> serviceList
# List<String> daysOpen
# List<Integer> timings
# String location
# int userRating
# String branchUID
# String managerUID
+ List<String> getServiceList()
+ List<String> getDaysOpen()
+ List<Integer> getTimings()
+ String getLocation()
+ int getUserRating()
+ String getBranchUID()
+ String getManagerUID()
+ void setTimings()
+ void setDaysOpen()
+ void setLocation()
+ void setUserRating()
+ void setBranchUID()
+ void setManagerUID()
+ void addService()
+ List<String> removeService()
+ String toString()
}
'class com.example.byblos.MainActivity {
'- CountingIdlingResource countingIdlingResource
'+ IdlingResource getIdlingResource()
'# void onCreate()
'}
'class com.example.byblos.VPAdapter {
'- ArrayList<Fragment> fragmentArrayList
'- ArrayList<String> fragmentTitle
'+ Fragment getItem()
'+ int getCount()
'+ void addFragment()
'+ CharSequence getPageTitle()
'}
class Employee.EmployeeCreateBranch {
- DatabaseReference mDatabase
- FirebaseAuth mAuth
+ {static} EmployeeCreateBranch newInstance()
+ void onCreate()
+ View onCreateView()
+ List<String> setDays()
+ List<Integer> setTimings()
+ void createBranch()
}
class Services.Forms.Rental.RentalForm {
# String PickUpTime
+ String getPickUpTime()
+ String getReturnTime()
+ String getLicenseType()
+ void setLicenseType()
+ void setReturnTime()
+ void setPickUpTime()
}
'class Employee.EmployeeViewBranch {
'- DatabaseReference mDatabase
'- FirebaseAuth mAuth
'+ {static} EmployeeViewBranch newInstance()
'+ void onCreate()
'+ View onCreateView()
'+ void displayBranch()
'+ List<String> setDays()
'+ List<Integer> setTimings()
'+ void modifyBranch()
'+ void dayOpen()
'+ void setTime()
'}
class Services.Forms.MovingInfo {
# String startLocation
# int numberOfMovers
+ String getStartLocation()
+ String getEndLocation()
+ int getNumberOfMovers()
+ int getNumberOfBoxes()
+ void setStartLocation()
+ void setEndLocation()
+ void setNumberOfMovers()
+ void setNumberOfBoxes()
+ String toString()
}
class Admin.MovingServices.AdminAddMovingAssistance {
- DatabaseReference mDatabase
~ EditText numberOfMovers
~ EditText hourlySetRate
~ Button confirmAndAdd
+ {static} AdminAddMovingAssistance newInstance()
+ void onCreate()
+ View onCreateView()
+ void addData()
}
class Admin.AdminManageUsers {
- TabLayout tabLayout
- ViewPager viewPager
+ {static} AdminManageUsers newInstance()
+ void onCreate()
+ View onCreateView()
}
class Employee.EmployeeManageServices {
~ FloatingActionButton floatingActionButton
- DatabaseReference mDatabase
- FirebaseAuth mAuth
~ Fragment service_add
~ Fragment service_view
+ {static} EmployeeManageServices newInstance()
+ void onCreate()
+ View onCreateView()
+ void displayServices()
+ void addServices()
}
class Services.Forms.Rental.TruckInfo {
# String usageArea
+ String getUsageArea()
+ void setUsageArea()
+ String toString()
}
class Services.vehicle {
+ String make
+ String model
+ String type
+ String branchIdentifier
+ String formID
+ String getMake()
+ String getModel()
+ String getType()
+ String getFormID()
+ void setBranch()
+ void removeBranch()
+ String getBranch()
+ void setFormID()
}
class Users.Admin {
}
class Admin.TruckRental.AdminAddTruckRental {
~ DatabaseReference mDatabase
~ EditText vehicleMake
~ EditText vehicleModel
~ EditText numberPlate
~ EditText hourlySetRate
~ EditText distanceRestriction
~ Spinner truckType
~ Button confirmAndAdd
+ {static} AdminAddTruckRental newInstance()
+ void onCreate()
+ View onCreateView()
+ void addData()
}
class Employee.EmployeeAddServices {
~ LinearLayout layoutToDraw
- DatabaseReference mDatabase
~ ViewGroup.LayoutParams layoutParams
~ Context thiscontext
- FirebaseAuth mAuth
+ {static} EmployeeAddServices newInstance()
+ void onCreate()
+ View onCreateView()
+ void generateItems()
+ void displayItem()
+ TextView createTextView()
+ void addService()
}
class Admin.TruckRental.AdminViewTruckRental {
~ LinearLayout layoutToDraw
- DatabaseReference mDatabase
~ ViewGroup.LayoutParams layoutParams
~ Context thiscontext
+ {static} AdminViewTruckRental newInstance()
+ void onCreate()
+ View onCreateView()
+ void generateItems()
+ void createItem()
+ TextView createTextView()
+ void deleteTruckService()
}
class Admin.AdminManageEmployees {
~ LinearLayout layoutToDraw
- DatabaseReference mDatabase
~ ViewGroup.LayoutParams layoutParams
~ Context thiscontext
+ {static} AdminManageEmployees newInstance()
+ void onCreate()
+ View onCreateView()
+ void generateItems()
+ void createItem()
+ TextView createTextView()
+ void deleteUser()
}
class Employee.EmployeeManageBranch {
- FirebaseAuth mAuth
~ Fragment branch_create
~ Fragment branch_view
+ {static} EmployeeManageBranch newInstance()
+ void onCreate()
+ View onCreateView()
+ void setView()
+ void createBranch()
+ void viewBranch()
}
class Employee.EmployeeToolbar {
- {static} String ARG_PARAM1
- {static} String ARG_PARAM2
- String mParam1
- String mParam2
+ {static} EmployeeToolbar newInstance()
+ void onCreate()
+ View onCreateView()
}
'class com.example.byblos.RegisterActivity {
'- String userType
'- FirebaseAuth mAuth
'- DatabaseReference mDatabase
'# void onCreate()
'+ boolean validateForm()
'+ void signUp()
'}
class Admin.AdminManageCustomers {
~ LinearLayout layoutToDraw
- DatabaseReference mDatabase
~ ViewGroup.LayoutParams layoutParams
~ Context thiscontext
+ {static} AdminManageCustomers newInstance()
+ void onCreate()
+ View onCreateView()
+ void generateItems()
+ void createItem()
+ TextView createTextView()
+ void deleteUser()
}
class Services.truckService {
~ String identifier
~ String numberPlate
~ String price
~ String distanceRestriction
+ String getNumberPlate()
+ String getDistanceRestriction()
+ String getIdentifier()
+ String getPrice()
+ void setIdentifier()
+ String toString()
}
class Admin.AdminNavDrawer {
+ {static} AdminNavDrawer newInstance()
+ void onCreate()
+ View onCreateView()
}
class Admin.MovingServices.AdminViewMovingAssistance {
~ LinearLayout layoutToDraw
- DatabaseReference mDatabase
~ ViewGroup.LayoutParams layoutParams
~ Context thiscontext
+ {static} AdminViewMovingAssistance newInstance()
+ void onCreate()
+ View onCreateView()
+ void generateItems()
+ void createItem()
+ TextView createTextView()
+ void deleteMovingService()
}
class Admin.TruckRental.AdminTruckRental {
~ Fragment truck_add
~ Fragment truck_view
~ FloatingActionButton floatingActionButton
+ {static} AdminTruckRental newInstance()
+ void onCreate()
+ View onCreateView()
+ void onViewCreated()
+ void add_truck()
+ void view_truck()
}
class Admin.AdminManageServices {
- TabLayout tabLayout
- ViewPager viewPager
+ void onCreate()
+ View onCreateView()
}
class Users.Employee {
# String branchUID
+ String getBranchUID()
+ void setBranchUID()
+ String toString()
}
class Customer.CustomerViewBranch {
~ LinearLayout layoutToDraw
- DatabaseReference mDatabase
- FirebaseAuth mAuth
~ ViewGroup.LayoutParams layoutParams
~ Context thiscontext
+ {static} CustomerViewBranch newInstance()
+ void onCreate()
+ View onCreateView()
+ void listBranches()
+ void createItem()
+ TextView createTextView()
+ void selectBranch()
+ void listBranchesByAddress()
+ void listBranchesByHour()
+ void listBranchesByService()
+ void clearSearchText()
}
class Customer.CustomerToolbar {
- {static} String ARG_PARAM1
- {static} String ARG_PARAM2
- String mParam1
- String mParam2
+ {static} CustomerToolbar newInstance()
+ void onCreate()
+ View onCreateView()
}
class Employee.EmployeeViewServices {
~ LinearLayout layoutToDraw
- DatabaseReference mDatabase
~ ViewGroup.LayoutParams layoutParams
~ Context thiscontext
- FirebaseAuth mAuth
+ {static} EmployeeViewServices newInstance()
+ void onCreate()
+ View onCreateView()
+ void displayItems()
+ void displayItem()
+ TextView createTextView()
+ void deleteService()
}
class Employee.EmployeeNavDrawer {
+ {static} EmployeeNavDrawer newInstance()
+ void onCreate()
+ View onCreateView()
}
'class com.example.byblos.Utilities {
'~ {static} String TAG
'~ {static} Character[] INVALID_CHARS
'+ {static} boolean nameChecker()
'+ {static} boolean emailChecker()
'+ {static} boolean stringChecker()
'}
'class com.example.byblos.LoginActivity {
'- FirebaseAuth mAuth
'- CountingIdlingResource countingIdlingResource
'+ IdlingResource getIdlingResource()
'# void onCreate()
'- void signIn()
'+ void login()
'+ void loginAccordingly()
'+ void findAndLogin()
'}
class Services.carService {
~ String identifier
~ String numberPlate
~ String price
+ String getNumberPlate()
+ String getIdentifier()
+ String getPrice()
+ void setIdentifier()
+ String toString()
}
class Customer.CustomerNavDrawer {
- {static} String ARG_PARAM1
- {static} String ARG_PARAM2
- String mParam1
- String mParam2
+ {static} CustomerNavDrawer newInstance()
+ void onCreate()
+ View onCreateView()
}
class Users.Customer {
~ String preferredBranchUID
+ void setPreferredBranchUID()
+ String getPreferredBranchUID()
+ String toString()
}
class Admin.AdminDashboard {
~ DrawerLayout drawerLayout
~ FragmentManager fragmentManager
# void onCreate()
+ void clickNavigationDrawer()
+ void manageServices()
+ void manageUsers()
+ void logOut()
- {static} void openDrawer()
- {static} void closeDrawer()
}
class Services.Forms.Rental.CarInfo {
# String CarType
+ String getCarType()
+ void setCarType()
+ String toString()
}
'class com.example.byblos.Welcome {
'- {static} String ARG_PARAM1
'- {static} String ARG_PARAM2
'- String mParam1
'- String mParam2
'+ {static} Welcome newInstance()
'+ void onCreate()
'+ View onCreateView()
'}


Services.Forms.Form <|-- Services.Forms.Rental.RentalForm
Services.Forms.Form <|-- Services.Forms.MovingInfo
Services.Forms.Rental.RentalForm <|-- Services.Forms.Rental.TruckInfo
Users.User <|-- Users.Admin
note top of Users : FirebaseDB Query Container Classes
note top of Services: FirebaseDB Query Container Classes
note top of Branch: FirebaseDB Query Container Classes
note top of Services.Forms: FirebaseDB Query Container Classes
Services.vehicle <|-- Services.truckService
Users.User <|-- Users.Employee
Services.vehicle <|-- Services.carService
Users.User <|-- Users.Customer
Services.Forms.Rental.RentalForm <|-- Services.Forms.Rental.CarInfo

' --- ADMIN ---
Admin.AdminDashboard   "1" -- "1" Admin.AdminNavDrawer
Admin.AdminDashboard   "1" -- "1" Admin.AdminToolbar
Admin.AdminDashboard   "1" -- "1" Admin.AdminManageServices
Admin.AdminDashboard   "1" -- "1" Admin.AdminManageUsers
Admin.AdminManageUsers "1" -- "1" Admin.AdminManageEmployees
Admin.AdminManageUsers "1" -- "1" Admin.AdminManageCustomers

Admin.AdminManageServices --- Admin.CarRental
Admin.AdminManageServices --- Admin.TruckRental
Admin.AdminManageServices --- Admin.MovingServices

Admin.CarRental.AdminCarRental -- Admin.CarRental.AdminViewCarRental
Admin.CarRental.AdminCarRental -- Admin.CarRental.AdminAddCarRental

Admin.TruckRental.AdminTruckRental -- Admin.TruckRental.AdminViewTruckRental
Admin.TruckRental.AdminTruckRental -- Admin.TruckRental.AdminAddTruckRental

Admin.MovingServices.AdminMovingAssistance -- Admin.MovingServices.AdminViewMovingAssistance
Admin.MovingServices.AdminMovingAssistance -- Admin.MovingServices.AdminAddMovingAssistance

' --- EMPLOYEE ---
Employee.EmployeeDashboard      "1" -- "1" Employee.EmployeeNavDrawer
Employee.EmployeeDashboard      "1" -- "1" Employee.EmployeeToolbar
Employee.EmployeeDashboard      "1" -- "1" Employee.EmployeeManageBranch
Employee.EmployeeDashboard      "1" -- "1" Employee.EmployeeManageServices
Employee.EmployeeManageBranch   "1" -- "1" Employee.EmployeeCreateBranch
Employee.EmployeeManageServices "1" -- "1" Employee.EmployeeAddServices
Employee.EmployeeManageServices "1" -- "1" Employee.EmployeeViewServices

' --- CUSTOMER ---
Customer.CustomerDashboard "1" -- "1" Customer.CustomerNavDrawer
Customer.CustomerDashboard "1" -- "1" Customer.CustomerToolbar
Customer.CustomerDashboard "1" -- "1" Customer.CustomerViewBranch

'androidx.appcompat.app.AppCompatActivity <|-- Employee.EmployeeDashboard
'androidx.fragment.app.Fragment <|-- Admin.MovingServices.AdminMovingAssistance
'androidx.fragment.app.Fragment <|-- Admin.CarRental.AdminViewCarRental
'androidx.fragment.app.Fragment <|-- Admin.CarRental.AdminAddCarRental
'androidx.fragment.app.Fragment <|-- Admin.CarRental.AdminCarRental
'androidx.fragment.app.Fragment <|-- Admin.AdminToolbar
'androidx.appcompat.app.AppCompatActivity <|-- Customer.CustomerDashboard
'androidx.appcompat.app.AppCompatActivity <|-- com.example.byblos.MainActivity
'androidx.fragment.app.FragmentPagerAdapter <|-- com.example.byblos.VPAdapter
'androidx.fragment.app.Fragment <|-- Employee.EmployeeCreateBranch
'androidx.fragment.app.Fragment <|-- Employee.EmployeeViewBranch
'androidx.fragment.app.Fragment <|-- Admin.MovingServices.AdminAddMovingAssistance
'androidx.fragment.app.Fragment <|-- Admin.AdminManageUsers
'androidx.fragment.app.Fragment <|-- Employee.EmployeeManageServices
'androidx.fragment.app.Fragment <|-- Admin.TruckRental.AdminAddTruckRental
'androidx.fragment.app.Fragment <|-- Employee.EmployeeAddServices
'androidx.fragment.app.Fragment <|-- Admin.TruckRental.AdminViewTruckRental
'androidx.fragment.app.Fragment <|-- Admin.AdminManageEmployees
'androidx.fragment.app.Fragment <|-- Employee.EmployeeManageBranch
'androidx.fragment.app.Fragment <|-- Employee.EmployeeToolbar
'androidx.appcompat.app.AppCompatActivity <|-- com.example.byblos.RegisterActivity
'androidx.fragment.app.Fragment <|-- Admin.AdminManageCustomers
'androidx.fragment.app.Fragment <|-- Admin.AdminNavDrawer
'androidx.fragment.app.Fragment <|-- Admin.MovingServices.AdminViewMovingAssistance
'androidx.fragment.app.Fragment <|-- Admin.TruckRental.AdminTruckRental
'androidx.fragment.app.Fragment <|-- Admin.AdminManageServices
'androidx.fragment.app.Fragment <|-- Customer.CustomerViewBranch
'androidx.fragment.app.Fragment <|-- Customer.CustomerToolbar
'androidx.fragment.app.Fragment <|-- Employee.EmployeeViewServices
'androidx.fragment.app.Fragment <|-- Employee.EmployeeNavDrawer
'androidx.appcompat.app.AppCompatActivity <|-- com.example.byblos.LoginActivity
'androidx.fragment.app.Fragment <|-- Customer.CustomerNavDrawer
'androidx.appcompat.app.AppCompatActivity <|-- Admin.AdminDashboard
'androidx.fragment.app.Fragment <|-- com.example.byblos.Welcome
@enduml